<?xml version="1.0" encoding="utf-8"?>
<!-- Generator: Adobe Illustrator 26.0.2, SVG Export Plug-In . SVG Version: 6.00 Build 0)  -->
<svg version="1.1" id="Layer_1" xmlns="http://www.w3.org/2000/svg" xmlns:xlink="http://www.w3.org/1999/xlink" x="0px" y="0px"
	 viewBox="0 0 100 100" style="enable-background:new 0 0 100 100;" xml:space="preserve">
<style type="text/css">
	.st0{fill:#231F20;}
</style>
<g>
	<path class="st0" d="M104.29,101.42v14.36H-4.29v-14.36c3.59-18.8,16.71-34.22,34.13-41.04c5.43,4.65,12.47,7.43,20.16,7.43
		s14.73-2.78,20.16-7.43C87.58,67.2,100.69,82.62,104.29,101.42z"/>
	<path class="st0" d="M72,36.71c0,9.31-5.78,17.26-13.94,20.47h-0.01c-2.49,0.98-5.2,1.52-8.04,1.52c-2.84,0-5.55-0.54-8.04-1.52
		h-0.01C33.78,53.97,28,46.02,28,36.71c0-12.15,9.85-22,22-22C62.15,14.71,72,24.56,72,36.71z"/>
</g>
</svg>
